
        <svg xmlns="http://www.w3.org/2000/svg" xmlns:xlink="http://www.w3.org/1999/xlink" version="1.1" width="3137.6146788990827" height="839.4495412844037" viewBox="0 0 3137.6146788990827 839.4495412844037">
			
			<g transform="scale(6.8807339449541285) translate(10, 10)">
				<defs id="SvgjsDefs1042"><linearGradient id="SvgjsLinearGradient1051"><stop id="SvgjsStop1052" stop-color="#006838" offset="0"/><stop id="SvgjsStop1053" stop-color="#96cf24" offset="1"/></linearGradient></defs><g id="SvgjsG1043" featureKey="symbolFeature-0" transform="matrix(1.1111111111111112,0,0,1.1111111111111112,-5.555555555555555,-4.687350802951389)" fill="#fff"><g xmlns="http://www.w3.org/2000/svg" transform="translate(0,-952.36216)"><path style="opacity:1;fill:url(#SvgjsLinearGradient1051);fill-opacity:1;stroke:none;stroke-width:0.73699999;stroke-linecap:round;stroke-linejoin:miter;stroke-miterlimit:4;stroke-dasharray:none;stroke-opacity:1" d="M 39.46512,980.88086 C 33.37,980.88086 8.48863,1013.0251 5,1023.8435 l 34.9101,0 0.72142,-1.9742 c 2.17892,-5.9645 7.277842,-13.6657 12.665855,-20.8459 1.078887,-1.43764 2.161336,-2.82684 3.233549,-4.14694 -7.056731,-8.7584 -14.174624,-15.9956 -17.065804,-15.9956 z m 31.05268,10.8909 c -4.251132,0 -21.237325,23.18924 -24.482201,32.07174 l 48.964401,0 C 91.755108,1014.961 74.768979,991.77176 70.5178,991.77176 Z"/></g></g><g id="SvgjsG1044" featureKey="textGroupContainer" transform="matrix(1,0,0,1,435,0)" fill="#fff"><rect xmlns="http://www.w3.org/2000/svg" y="0" height="1" width="1" opacity="0"/><rect xmlns="http://www.w3.org/2000/svg" y="0" x="-315" width="3" height="102"/></g><g id="SvgjsG1045" featureKey="vMvB0T-0" transform="matrix(2.4229501769778476,0,0,2.4229501769778476,137.85462283918548,10.977708209525739)" fill="#fff"><path d="M6.7 8.98 l0.02 1.48 l0 9.54 q-0.68 0.12 -1.62 0.12 t-1.58 -0.12 l0 -11.02 l-1.28 0.02 l-2.06 0 q-0.12 -0.58 -0.12 -1.33 t0.12 -1.33 l9.9 0 q0.16 0.52 0.16 1.26 t-0.4 1.07 t-1.28 0.33 l-0.58 0 l-1.26 -0.02 l-0.02 0 z M21.520000000000003 10.56 q0 0.66 -0.2 1.25 t-0.53 1.06 t-0.78 0.82 t-0.93 0.53 q1.04 0.38 1.54 1.84 l0.6 1.7 q0.34 1 1 1.48 q-0.3 0.4 -0.9 0.67 t-1.32 0.27 t-1.12 -0.41 t-0.74 -1.43 l-0.72 -2.1 q-0.22 -0.6 -0.59 -0.92 t-1.11 -0.32 l-0.82 0 l0 5 q-0.64 0.12 -1.6 0.12 t-1.58 -0.12 l0 -13.56 l0.14 -0.14 q1.74 -0.04 2.93 -0.06 t1.87 -0.02 q1.1 0 2 0.27 t1.53 0.81 t0.98 1.36 t0.35 1.9 z M14.900000000000002 8.62 l0 3.92 q0.9 0 1.54 -0.03 t1.03 -0.24 t0.59 -0.59 t0.2 -1.1 q0 -1.94 -1.88 -1.94 l-0.83 0 t-0.65 -0.02 z M27.34 17.14 q-0.54 0 -0.8 -0.02 l-0.86 2.9 q-0.48 0.12 -1.34 0.12 q-0.96 0 -1.56 -0.22 l-0.1 -0.16 l4.4 -13.42 q0.78 -0.12 1.82 -0.12 q1.18 0 1.88 0.14 l4.32 13.44 q-0.7 0.38 -1.58 0.38 q-1.04 0 -1.46 -0.36 t-0.72 -1.38 l-0.38 -1.32 q-0.26 0.02 -0.78 0.02 l-2.84 0 z M27.28 14.620000000000001 l0.8 -0.02 l1.46 0 q0.1 0 0.35 0.01 t0.37 0.01 l-0.34 -1.24 q-0.48 -1.68 -1.1 -4.12 l-0.12 0 q-0.16 0.86 -0.96 3.82 z M45.62 19.12 q-0.64 0.52 -1.68 0.76 t-2.3 0.24 q-0.62 0 -1.79 -0.02 t-2.93 -0.06 l-0.14 -0.14 l0 -13.46 l0.14 -0.14 q1.16 -0.04 2.41 -0.06 t2.63 -0.02 q1.7 0 2.84 0.54 t1.82 1.48 t0.96 2.21 t0.28 2.73 q0 2 -0.46 3.46 t-1.78 2.48 z M41.94 17.62 q2.64 0 2.64 -4.44 q0 -4.46 -2.64 -4.46 l-1.13 0 t-0.85 -0.02 l0 8.94 q0.36 -0.02 0.85 -0.02 l1.13 0 z M53.25999999999999 15.96 l-0.02 1.44 l0 0.02 q0.92 -0.04 1.48 -0.04 l4.64 0 q0 0.74 -0.06 1.14 q-0.24 1.54 -2.04 1.54 l-5.32 0 q-0.86 0 -1.35 -0.5 t-0.49 -1.36 l0 -11.72 l0.14 -0.14 l8.62 0 q0.12 0.58 0.12 1.26 t-0.28 1.42 l-5.46 0 l0.02 1.44 l0 1.4 q0.52 -0.02 1.36 -0.02 l3.06 0 q0.18 0.56 0.18 1.28 t-0.18 1.32 l-4.42 0 l0 1.52 z M73.47999999999999 11.64 l-0.02 -1.48 l0 -3.82 q0.62 -0.12 1.61 -0.12 t1.59 0.12 l0 13.66 q-0.64 0.12 -1.6 0.12 t-1.6 -0.12 l0 -4.24 l0.02 -1.48 l-1 0.02 l-2.32 0 l-1 -0.02 l0.02 1.48 l0 4.24 q-0.62 0.12 -1.6 0.12 t-1.6 -0.12 l0 -13.66 q0.62 -0.12 1.6 -0.12 t1.6 0.12 l0 3.82 l-0.02 1.48 l1 -0.02 l2.32 0 z M90.32 6.34 l0 8.62 q0 2.56 -1.4 3.95 t-4 1.39 t-4.01 -1.39 t-1.41 -3.95 l0 -8.62 l0.14 -0.14 l1.18 0 q1.9 0 1.9 2.04 l0 6.76 q0 1.4 0.5 2.08 t1.7 0.68 t1.7 -0.68 t0.5 -2.08 l0 -8.66 q0.62 -0.12 1.6 -0.12 q0.96 0 1.6 0.12 z M93.29999999999998 6.300000000000001 q1.62 -0.04 2.77 -0.06 t1.85 -0.02 q2.18 0 3.43 0.91 t1.25 2.73 q0 0.88 -0.5 1.64 t-1.28 1.1 q0.5 0.16 0.95 0.51 t0.77 0.82 t0.51 1.02 t0.19 1.13 q0 2.06 -1.31 3.05 t-3.71 0.99 q-0.74 0 -1.96 -0.02 t-2.96 -0.06 l-0.14 -0.14 l0 -13.46 z M97.97999999999999 13.98 l-1.66 0 l0 3.9 q0.52 -0.02 1.17 0 t1.21 -0.1 t0.94 -0.58 t0.38 -1.28 q0 -0.78 -0.49 -1.36 t-1.55 -0.58 z M96.32 8.48 l0 3.22 l1.42 0 q0.96 0 1.35 -0.47 t0.39 -1.15 t-0.4 -1.13 t-1.34 -0.45 l-0.81 0 t-0.61 -0.02 z"/></g><g id="SvgjsG1046" featureKey="sloganFeature-0" transform="matrix(0.5073934788028243,0,0,0.5073934788028243,136.98521304239435,67.05711821005411)" fill="#fff"><path d="M3.5 20 l-1.5 0 l0 -14 l6.2 0 c2.1 0 3.5 1.4 3.5 3.3 l0 1.9 c0 2.8 -2.7 3.2 -2.7 3.2 l3.1 5 l0 0.6 l-1.5 0 l-3.1 -5.5 l-4 0 l0 5.5 z M8.2 7.300000000000001 l-4.7 0 l0 5.9 l4.7 0 c1.1 0 2 -0.9 2 -2 l0 -1.9 c0 -1.1 -0.9 -2 -2 -2 z M18.72 20 l0 -14 l9.1 0 l0 0.9 l-0.4 0.4 l-7.2 0 l0 4.9 l5.7 0 l0 1.3 l-5.7 0 l0 5.2 l7.6 0 l0 1.3 l-9.1 0 z M34.04 6 l1.5 0 l0 12.7 l7.5 0 l0 1.3 l-9 0 l0 -14 z M50.36 20 l-1.5 0 l0 -14 l1.5 0 l0 14 z M58.980000000000004 16.4 l-1.2 3.6 l-1.5 0 l0 -0.6 l4.9 -13.4 l1.7 0 l4.9 13.4 l0 0.6 l-1.5 0 l-1.2 -3.6 l-6.1 0 z M64.58 15.1 l-2.5 -7.3 l-0.1 0 l-2.5 7.3 l5.1 0 z M80.2 13.4 l-5 0 l0 5.3 l5 0 c1.1 0 2 -0.9 2 -2 l0 -1.3 c0 -1.1 -0.9 -2 -2 -2 z M81.3 12.5 l0 0.1 s2.4 0.4 2.4 2.8 l0 1.3 c0 1.9 -1.4 3.3 -3.5 3.3 l-6.5 0 l0 -14 l5.8 0 c2.1 0 3.5 1.4 3.5 3.3 l0 0.8 c0 2 -1.7 2.4 -1.7 2.4 z M79.5 7.300000000000001 l-4.3 0 l0 4.8 l4.3 0 c1.1 0 2 -0.9 2 -2 l0 -0.8 c0 -1.1 -0.9 -2 -2 -2 z M90.32000000000001 6 l1.5 0 l0 12.7 l7.5 0 l0 1.3 l-9 0 l0 -14 z M105.14000000000001 20 l0 -14 l9.1 0 l0 0.9 l-0.4 0.4 l-7.2 0 l0 4.9 l5.7 0 l0 1.3 l-5.7 0 l0 5.2 l7.6 0 l0 1.3 l-9.1 0 z M130.38 20 l-1.5 0 l0 -14 l6.2 0 c2.1 0 3.5 1.4 3.5 3.3 l0 2.7 c0 1.9 -1.4 3.3 -3.5 3.3 l-4.7 0 l0 4.7 z M135.08 7.300000000000001 l-4.7 0 l0 6.7 l4.7 0 c1.1 0 2 -0.9 2 -2 l0 -2.7 c0 -1.1 -0.9 -2 -2 -2 z M145.60000000000002 16.4 l-1.2 3.6 l-1.5 0 l0 -0.6 l4.9 -13.4 l1.7 0 l4.9 13.4 l0 0.6 l-1.5 0 l-1.2 -3.6 l-6.1 0 z M151.20000000000002 15.1 l-2.5 -7.3 l-0.1 0 l-2.5 7.3 l5.1 0 z M161.82000000000002 20 l-1.5 0 l0 -14 l6.2 0 c2.1 0 3.5 1.4 3.5 3.3 l0 1.9 c0 2.8 -2.7 3.2 -2.7 3.2 l3.1 5 l0 0.6 l-1.5 0 l-3.1 -5.5 l-4 0 l0 5.5 z M166.52 7.300000000000001 l-4.7 0 l0 5.9 l4.7 0 c1.1 0 2 -0.9 2 -2 l0 -1.9 c0 -1.1 -0.9 -2 -2 -2 z M181.14000000000001 7.300000000000001 l0 12.7 l-1.5 0 l0 -12.7 l-4.4 0 l0 -1.3 l10.3 0 l0 0.9 l-0.4 0.4 l-4 0 z M199.56 20 l-6.8 -11.5 l-0.1 0 l0.2 2.6 l0 8.9 l-1.5 0 l0 -14 l1.6 0 l6.8 11.5 l0.1 0 l-0.2 -2.6 l0 -8.9 l1.5 0 l0 14 l-1.6 0 z M208.78000000000003 20 l0 -14 l9.1 0 l0 0.9 l-0.4 0.4 l-7.2 0 l0 4.9 l5.7 0 l0 1.3 l-5.7 0 l0 5.2 l7.6 0 l0 1.3 l-9.1 0 z M225.60000000000002 20 l-1.5 0 l0 -14 l6.2 0 c2.1 0 3.5 1.4 3.5 3.3 l0 1.9 c0 2.8 -2.7 3.2 -2.7 3.2 l3.1 5 l0 0.6 l-1.5 0 l-3.1 -5.5 l-4 0 l0 5.5 z M230.3 7.300000000000001 l-4.7 0 l0 5.9 l4.7 0 c1.1 0 2 -0.9 2 -2 l0 -1.9 c0 -1.1 -0.9 -2 -2 -2 z M250.74 20 l-1.5 0 l0 -14 l9.1 0 l0 0.9 l-0.4 0.4 l-7.2 0 l0 5.6 l5.6 0 l0 1.3 l-5.6 0 l0 5.8 z M263.56000000000006 16.9 l0 -7.8 c0 -1.9 1.4 -3.3 3.5 -3.3 l3.5 0 c2.1 0 3.5 1.4 3.5 3.3 l0 7.8 c0 1.9 -1.4 3.3 -3.5 3.3 l-3.5 0 c-2.1 0 -3.5 -1.4 -3.5 -3.3 z M272.56000000000006 16.9 l0 -7.8 c0 -1.1 -0.9 -2 -2 -2 l-3.5 0 c-1.1 0 -2 0.9 -2 2 l0 7.8 c0 1.1 0.9 2 2 2 l3.5 0 c1.1 0 2 -0.9 2 -2 z M282.78000000000003 20 l-1.5 0 l0 -14 l6.2 0 c2.1 0 3.5 1.4 3.5 3.3 l0 1.9 c0 2.8 -2.7 3.2 -2.7 3.2 l3.1 5 l0 0.6 l-1.5 0 l-3.1 -5.5 l-4 0 l0 5.5 z M287.48 7.300000000000001 l-4.7 0 l0 5.9 l4.7 0 c1.1 0 2 -0.9 2 -2 l0 -1.9 c0 -1.1 -0.9 -2 -2 -2 z M305.52000000000004 9.9 l0 -0.6 c0 -1.9 1.4 -3.3 3.5 -3.3 l5.5 0 l0 0.9 l-0.4 0.4 l-5.1 0 c-1.1 0 -2 0.9 -2 2 l0 0.6 c0 1.1 0.6 1.68 1.6 1.9 l3.7 0.8 c1.4 0.3 2.5 1.4 2.5 3.2 l0 0.9 c0 1.9 -1.4 3.3 -3.5 3.3 l-6 0 l0 -1.3 l6 0 c1.1 0 2 -0.9 2 -2 l0 -0.9 c0 -1.1 -0.6 -1.68 -1.6 -1.9 l-3.7 -0.8 c-1.4 -0.3 -2.5 -1.4 -2.5 -3.2 z  M327.74 20.2 l-3 0 c-2.1 0 -3.5 -1.4 -3.5 -3.3 l0 -10.9 l1.5 0 l0 10.9 c0 1.1 0.9 2 2 2 l3 0 c1.1 0 2 -0.9 2 -2 l0 -10.9 l1.5 0 l0 10.9 c0 1.9 -1.4 3.3 -3.5 3.3 z M337.96000000000004 9.9 l0 -0.6 c0 -1.9 1.4 -3.3 3.5 -3.3 l5.5 0 l0 0.9 l-0.4 0.4 l-5.1 0 c-1.1 0 -2 0.9 -2 2 l0 0.6 c0 1.1 0.6 1.68 1.6 1.9 l3.7 0.8 c1.4 0.3 2.5 1.4 2.5 3.2 l0 0.9 c0 1.9 -1.4 3.3 -3.5 3.3 l-6 0 l0 -1.3 l6 0 c1.1 0 2 -0.9 2 -2 l0 -0.9 c0 -1.1 -0.6 -1.68 -1.6 -1.9 l-3.7 -0.8 c-1.4 -0.3 -2.5 -1.4 -2.5 -3.2 z  M357.78000000000003 7.300000000000001 l0 12.7 l-1.5 0 l0 -12.7 l-4.4 0 l0 -1.3 l10.3 0 l0 0.9 l-0.4 0.4 l-4 0 z M369 16.4 l-1.2 3.6 l-1.5 0 l0 -0.6 l4.9 -13.4 l1.7 0 l4.9 13.4 l0 0.6 l-1.5 0 l-1.2 -3.6 l-6.1 0 z M374.6 15.1 l-2.5 -7.3 l-0.1 0 l-2.5 7.3 l5.1 0 z M385.22 20 l-1.5 0 l0 -14 l1.5 0 l0 14 z M401.04 20 l-6.8 -11.5 l-0.1 0 l0.2 2.6 l0 8.9 l-1.5 0 l0 -14 l1.6 0 l6.8 11.5 l0.1 0 l-0.2 -2.6 l0 -8.9 l1.5 0 l0 14 l-1.6 0 z M411.26000000000005 16.4 l-1.2 3.6 l-1.5 0 l0 -0.6 l4.9 -13.4 l1.7 0 l4.9 13.4 l0 0.6 l-1.5 0 l-1.2 -3.6 l-6.1 0 z M416.86000000000007 15.1 l-2.5 -7.3 l-0.1 0 l-2.5 7.3 l5.1 0 z M432.48 13.4 l-5 0 l0 5.3 l5 0 c1.1 0 2 -0.9 2 -2 l0 -1.3 c0 -1.1 -0.9 -2 -2 -2 z M433.58000000000004 12.5 l0 0.1 s2.4 0.4 2.4 2.8 l0 1.3 c0 1.9 -1.4 3.3 -3.5 3.3 l-6.5 0 l0 -14 l5.8 0 c2.1 0 3.5 1.4 3.5 3.3 l0 0.8 c0 2 -1.7 2.4 -1.7 2.4 z M431.78000000000003 7.300000000000001 l-4.3 0 l0 4.8 l4.3 0 c1.1 0 2 -0.9 2 -2 l0 -0.8 c0 -1.1 -0.9 -2 -2 -2 z M442.6 6 l1.5 0 l0 12.7 l7.5 0 l0 1.3 l-9 0 l0 -14 z M457.42 20 l0 -14 l9.1 0 l0 0.9 l-0.4 0.4 l-7.2 0 l0 4.9 l5.7 0 l0 1.3 l-5.7 0 l0 5.2 l7.6 0 l0 1.3 l-9.1 0 z M484.96000000000004 7.300000000000001 l0 12.7 l-1.5 0 l0 -12.7 l-4.4 0 l0 -1.3 l10.3 0 l0 0.9 l-0.4 0.4 l-4 0 z M496.68 20 l-1.5 0 l0 -14 l6.2 0 c2.1 0 3.5 1.4 3.5 3.3 l0 1.9 c0 2.8 -2.7 3.2 -2.7 3.2 l3.1 5 l0 0.6 l-1.5 0 l-3.1 -5.5 l-4 0 l0 5.5 z M501.38 7.300000000000001 l-4.7 0 l0 5.9 l4.7 0 c1.1 0 2 -0.9 2 -2 l0 -1.9 c0 -1.1 -0.9 -2 -2 -2 z M512.9 16.4 l-1.2 3.6 l-1.5 0 l0 -0.6 l4.9 -13.4 l1.7 0 l4.9 13.4 l0 0.6 l-1.5 0 l-1.2 -3.6 l-6.1 0 z M518.5 15.1 l-2.5 -7.3 l-0.1 0 l-2.5 7.3 l5.1 0 z M527.62 20 l0 -14 l6.4 0 c2.1 0 3.5 1.4 3.5 3.3 l0 7.4 c0 1.9 -1.4 3.3 -3.5 3.3 l-6.4 0 z M529.12 7.300000000000001 l0 11.4 l4.9 0 c1.1 0 2 -0.9 2 -2 l0 -7.4 c0 -1.1 -0.9 -2 -2 -2 l-4.9 0 z M544.74 20 l0 -14 l9.1 0 l0 0.9 l-0.4 0.4 l-7.2 0 l0 4.9 l5.7 0 l0 1.3 l-5.7 0 l0 5.2 l7.6 0 l0 1.3 l-9.1 0 z"/></g>
			</g>
		</svg>
	